#!OML:ASF E:\Style4\Style4.ASF
:FULLY-SPECIFIED
:DEGREES
2006
root -1.48038 17.1915 -1.56979 6.61593 30.4289 3.32861
lowerback 16.6041 5.24429 0.802098
upperback 10.2402 7.18456 -2.10078
thorax 2.07454 3.81904 -3.66468
lowerneck 1.76331 -10.0557 -5.50714
upperneck -3.16586 -13.3042 13.3966
head 0.0771017 -6.7893 4.79538
rclavicle 4.92986e-014 -2.54444e-014
rhumerus 46.3352 7.32468 -42.2255
rradius 51.0634
rwrist -0.438972
rhand 39.1077 1.5463
rfingers 7.12502
rthumb 61.6514 -10.3749
lclavicle 4.92986e-014 -2.54444e-014
lhumerus 32.0701 -27.2476 43.5265
lradius 85.5736
lwrist 4.85886
lhand 33.16 38.3899
lfingers 7.12502
lthumb 56.5233 55.3663
rfemur -29.5864 -23.4077 22.5915
rtibia 49.7639
rfoot -27.2772 -24.1783
rtoes -4.26678
lfemur -34.3476 -10.1947 -15.3007
ltibia 39.7865
lfoot -8.98997 -11.7172
ltoes -6.62901
2007
root -1.48153 17.178 -1.56834 6.50497 30.5483 3.37643
lowerback 16.6511 5.19239 0.72849
upperback 10.3316 7.11161 -2.05017
thorax 2.12767 3.7804 -3.56093
lowerneck 1.68793 -10.0766 -5.49873
upperneck -3.21087 -13.3263 13.4417
head 0.0810986 -6.79987 4.80352
rclavicle -6.99722e-014 1.51076e-014
rhumerus 46.3332 7.52499 -42.1442
rradius 51.0421
rwrist -0.343204
rhand 39.5234 1.90637
rfingers 7.12502
rthumb 61.999 -9.58879
lclavicle -6.99722e-014 1.51076e-014
lhumerus 32.1361 -27.3074 43.5221
lradius 85.3934
lwrist 4.75173
lhand 33.4158 38.1889
lfingers 7.12502
lthumb 56.7489 54.9822
rfemur -29.5702 -23.6223 22.5121
rtibia 50.0481
rfoot -27.4521 -24.118
rtoes -4.25421
lfemur -34.3679 -10.4276 -15.325
ltibia 40.0282
lfoot -9.08457 -11.6879
ltoes -6.59892
2008
root -1.48066 17.1619 -1.56915 6.39217 30.7718 3.44665
lowerback 16.6936 5.11368 0.736798
upperback 10.4167 7.01523 -2.00281
thorax 2.18564 3.73442 -3.50216
lowerneck 1.62098 -10.1092 -5.51859
upperneck -3.20546 -13.3694 13.4944
head 0.10296 -6.81945 4.81606
rclavicle 2.46493e-014 -2.90226e-014
rhumerus 46.2374 7.752 -41.9886
rradius 51.1224
rwrist -0.318608
rhand 39.9002 1.81816
rfingers 7.12502
rthumb 62.3124 -9.28123
lclavicle 2.46493e-014 -2.90226e-014
lhumerus 32.2452 -27.4065 43.5147
lradius 85.1946
lwrist 4.84511
lhand 33.5092 38.2013
lfingers 7.12502
lthumb 56.8312 54.9271
rfemur -29.5556 -23.8864 22.3676
rtibia 50.3304
rfoot -27.5714 -24.0875
rtoes -4.31557
lfemur -34.4089 -10.7621 -15.3958
ltibia 40.3004
lfoot -9.20209 -11.6407
ltoes -6.59523
2009
root -1.47732 17.147 -1.56702 6.27888 30.9484 3.47871
lowerback 16.7064 5.05415 0.82007
upperback 10.4534 6.95183 -1.98361
thorax 2.22183 3.70822 -3.51826
lowerneck 1.5732 -10.1264 -5.49158
upperneck -3.11006 -13.3985 13.5209
head 0.14154 -6.82986 4.81262
rclavicle -5.88403e-014 -7.95139e-015
rhumerus 46.0792 8.05173 -41.93
rradius 51.1902
rwrist -0.368375
rhand 39.988 1.47726
rfingers 7.12502
rthumb 62.3853 -9.52852
lclavicle -5.88403e-014 -7.95139e-015
lhumerus 32.3848 -27.561 43.4294
lradius 84.9365
lwrist 5.04238
lhand 33.5419 38.3583
lfingers 7.12502
lthumb 56.8599 55.0604
rfemur -29.5188 -24.0801 22.2536
rtibia 50.5926
rfoot -27.7346 -24.0227
rtoes -4.15975
lfemur -34.448 -10.9521 -15.4533
ltibia 40.5905
lfoot -9.30489 -11.6723
ltoes -6.40928
2010
root -1.47256 17.1332 -1.55927 6.12229 30.9221 3.44554
lowerback 16.6775 5.05107 0.865386
upperback 10.4612 6.95467 -1.96487
thorax 2.24835 3.71176 -3.52035
lowerneck 1.62578 -10.1191 -5.43116
upperneck -3.08741 -13.3892 13.5032
head 0.133255 -6.82646 4.80129
rclavicle -3.85642e-014 -1.47101e-014
rhumerus 45.9794 8.39775 -42.0058
rradius 51.1348
rwrist -0.138432
rhand 40.3449 1.59279
rfingers 7.12502
rthumb 62.6805 -9.02719
lclavicle -3.85642e-014 -1.47101e-014
lhumerus 32.4524 -27.7188 43.2722
lradius 84.6509
lwrist 5.20794
lhand 33.8891 38.6204
lfingers 7.12502
lthumb 57.1653 55.0679
rfemur -29.451 -24.0869 22.2067
rtibia 50.8412
rfoot -27.8376 -24.0259
rtoes -4.18989
lfemur -34.4019 -10.9296 -15.4645
ltibia 40.8866
lfoot -9.43064 -11.7188
ltoes -6.24571
2011
root -1.46625 17.1213 -1.5477 5.92762 30.7995 3.44679
lowerback 16.6161 5.04982 0.804204
upperback 10.497 6.94678 -1.93495
thorax 2.3066 3.7048 -3.44595
lowerneck 1.70732 -10.0844 -5.42296
upperneck -3.12042 -13.3408 13.477
head 0.103181 -6.80563 4.80018
rclavicle 1.35174e-014 -3.10104e-014
rhumerus 46.0935 8.79861 -42.0288
rradius 50.9823
rwrist 0.0692597
rhand 40.8596 1.78748
rfingers 7.12502
rthumb 63.1038 -8.2606
lclavicle 1.35174e-014 -3.10104e-014
lhumerus 32.3707 -27.7556 43.1965
lradius 84.358
lwrist 5.33548
lhand 34.3608 39.0657
lfingers 7.12502
lthumb 57.5789 55.159
rfemur -29.2776 -24.045 22.0984
rtibia 51.0618
rfoot -27.9629 -24.0206
rtoes -4.26956
lfemur -34.2593 -10.7904 -15.5399
ltibia 41.1905
lfoot -9.64247 -11.7739
ltoes -6.45885
2012
root -1.46332 17.1077 -1.53603 5.71405 30.7265 3.41726
lowerback 16.6375 5.04368 0.83914
upperback 10.4774 6.94269 -1.95755
thorax 2.28136 3.70485 -3.49162
lowerneck 1.80016 -10.0649 -5.33335
upperneck -3.103 -13.3141 13.4747
head 0.0842791 -6.79533 4.79215
rclavicle 4.33351e-014 -3.18055e-014
rhumerus 46.0988 9.16199 -42.0949
rradius 50.854
rwrist 0.076109
rhand 41.2005 1.87244
rfingers 7.12502
rthumb 63.3826 -7.78644
lclavicle 4.33351e-014 -3.18055e-014
lhumerus 32.3971 -27.8503 42.9403
lradius 84.1115
lwrist 5.70407
lhand 34.6366 39.3698
lfingers 7.12502
lthumb 57.8202 55.2515
rfemur -29.101 -24.0187 22.0347
rtibia 51.2676
rfoot -28.0686 -24.0006
rtoes -4.32617
lfemur -34.1416 -10.5961 -15.5798
ltibia 41.4666
lfoot -9.76134 -11.9574
ltoes -6.90004
